# xmcd
#
# Track frame offsets:
#	150
#	12949
#	26449
#	39945
#	55082
#	69609
#	82079
#	99450
#	119502
#	136737
#	150022
#	161867
#	177827
#	190296
#	201433
#	213533
#
# Disc length: 3054 seconds
#
# Revision: 1
# Processed by: cddbd v1.5.2PL0 Copyright (c) Steve Scherf et al.
# Submitted via: audiograbber 1.83.01
#
DISCID=d50bec10
DTITLE=Percy Sledge - The Collection
DYEAR=1900
DGENRE=Blues
TTITLE0=when a man loves a woman
TTITLE1=my special prayer
TTITLE2=take time to know her
TTITLE3=out of left field
TTITLE4=warm and tender love
TTITLE5=it tears me up
TTITLE6=if loving you is wrong
TTITLE7=you send me
TTITLE8=try a little tenderness
TTITLE9=ive been loving you too long
TTITLE10=tell it like it us
TTITLE11=just out of reach
TTITLE12=dark end of the street
TTITLE13=baby help me
TTITLE14=adorable one
TTITLE15=bring it home to me
EXTD=
EXTT0=
EXTT1=
EXTT2=
EXTT3=
EXTT4=
EXTT5=
EXTT6=
EXTT7=
EXTT8=
EXTT9=
EXTT10=
EXTT11=
EXTT12=
EXTT13=
EXTT14=
EXTT15=
PLAYORDER=
